<svg width="1280" height="720" viewBox="0 0 1280 720" xmlns="http://www.w3.org/2000/svg" role="img" aria-labelledby="title desc">
  <title id="title">CWH cryonics capsule main visual</title>
  <desc id="desc">A sharp futuristic cryonics capsule visual with the CWH mark integrated into the capsule body as a glowing structural element.</desc>
  <defs>
    <linearGradient id="bg" x1="0" y1="0" x2="1" y2="1">
      <stop offset="0" stop-color="#020815"/>
      <stop offset="0.44" stop-color="#071a2f"/>
      <stop offset="1" stop-color="#0c3357"/>
    </linearGradient>
    <radialGradient id="cyanGlow" cx="60%" cy="38%" r="58%">
      <stop offset="0" stop-color="#8de9ff" stop-opacity="0.42"/>
      <stop offset="0.36" stop-color="#2fbbff" stop-opacity="0.17"/>
      <stop offset="1" stop-color="#07111f" stop-opacity="0"/>
    </radialGradient>
    <linearGradient id="floor" x1="0" y1="0" x2="1" y2="0">
      <stop offset="0" stop-color="#07101e"/>
      <stop offset="0.5" stop-color="#0b2845"/>
      <stop offset="1" stop-color="#04101f"/>
    </linearGradient>
    <linearGradient id="metal" x1="0" y1="0" x2="1" y2="1">
      <stop offset="0" stop-color="#eef7ff"/>
      <stop offset="0.18" stop-color="#9fb1bf"/>
      <stop offset="0.48" stop-color="#405063"/>
      <stop offset="0.72" stop-color="#c8d8e4"/>
      <stop offset="1" stop-color="#5c7082"/>
    </linearGradient>
    <linearGradient id="podDark" x1="0" y1="0" x2="1" y2="0">
      <stop offset="0" stop-color="#111d2b"/>
      <stop offset="0.5" stop-color="#25364a"/>
      <stop offset="1" stop-color="#101a27"/>
    </linearGradient>
    <linearGradient id="glass" x1="0" y1="0" x2="1" y2="1">
      <stop offset="0" stop-color="#d7fbff" stop-opacity="0.82"/>
      <stop offset="0.34" stop-color="#58d5ff" stop-opacity="0.40"/>
      <stop offset="0.68" stop-color="#115581" stop-opacity="0.58"/>
      <stop offset="1" stop-color="#06142a" stop-opacity="0.72"/>
    </linearGradient>
    <linearGradient id="mark" x1="0" y1="0" x2="1" y2="0">
      <stop offset="0" stop-color="#ecfbff"/>
      <stop offset="0.5" stop-color="#78e4ff"/>
      <stop offset="1" stop-color="#d6f8ff"/>
    </linearGradient>
    <filter id="softGlow" x="-80%" y="-80%" width="260%" height="260%">
      <feGaussianBlur stdDeviation="10" result="blur"/>
      <feColorMatrix in="blur" type="matrix" values="0 0 0 0 0.19 0 0 0 0 0.78 0 0 0 0 1 0 0 0 0.85 0" result="glow"/>
      <feMerge>
        <feMergeNode in="glow"/>
        <feMergeNode in="SourceGraphic"/>
      </feMerge>
    </filter>
    <filter id="deepShadow" x="-20%" y="-40%" width="150%" height="190%">
      <feDropShadow dx="0" dy="34" stdDeviation="24" flood-color="#000814" flood-opacity="0.58"/>
    </filter>
    <clipPath id="podClip">
      <path d="M196 442 C256 320 387 256 594 242 C766 230 962 266 1074 343 C1123 377 1111 433 1048 459 C912 515 544 523 290 487 C218 477 171 493 196 442 Z"/>
    </clipPath>
  </defs>

  <rect width="1280" height="720" fill="url(#bg)"/>
  <rect width="1280" height="720" fill="url(#cyanGlow)"/>

  <g opacity="0.22">
    <path d="M0 118 H1280 M0 210 H1280 M0 302 H1280 M0 394 H1280 M0 486 H1280" stroke="#69d7ff" stroke-width="1"/>
    <path d="M126 0 V720 M286 0 V720 M446 0 V720 M606 0 V720 M766 0 V720 M926 0 V720 M1086 0 V720" stroke="#69d7ff" stroke-width="1"/>
  </g>

  <g opacity="0.72">
    <circle cx="914" cy="296" r="172" fill="none" stroke="#16496e" stroke-width="32"/>
    <circle cx="914" cy="296" r="132" fill="none" stroke="#69d7ff" stroke-width="3" opacity="0.76"/>
    <circle cx="914" cy="296" r="94" fill="none" stroke="#69d7ff" stroke-width="2" opacity="0.34"/>
    <path d="M742 296 H1086" stroke="#69d7ff" stroke-width="2" opacity="0.38"/>
    <path d="M914 124 V468" stroke="#69d7ff" stroke-width="2" opacity="0.22"/>
  </g>

  <g opacity="0.70">
    <rect x="74" y="136" width="266" height="160" rx="34" fill="#06101d" stroke="#163e62"/>
    <path d="M96 248 C162 214 233 203 320 215" fill="none" stroke="#69d7ff" stroke-width="3" opacity="0.45"/>
    <circle cx="126" cy="180" r="2" fill="#bdf4ff"/>
    <circle cx="182" cy="162" r="1.7" fill="#bdf4ff"/>
    <circle cx="265" cy="188" r="1.5" fill="#bdf4ff"/>
    <circle cx="310" cy="152" r="1.2" fill="#bdf4ff"/>
  </g>

  <path d="M0 515 C220 462 392 493 594 520 C843 554 1025 538 1280 488 V720 H0 Z" fill="url(#floor)" opacity="0.88"/>
  <path d="M160 606 C414 570 750 574 1105 616" fill="none" stroke="#69d7ff" stroke-width="3" opacity="0.18"/>
  <path d="M226 653 C520 608 748 608 1034 648" fill="none" stroke="#69d7ff" stroke-width="2" opacity="0.10"/>

  <g filter="url(#deepShadow)">
    <ellipse cx="626" cy="516" rx="466" ry="50" fill="#00050d" opacity="0.46"/>

    <g transform="rotate(-4 640 400)">
      <path d="M172 443 C240 316 374 252 585 234 C761 219 968 257 1081 338 C1131 373 1118 430 1052 459 C902 525 528 535 281 496 C211 485 148 491 172 443 Z" fill="url(#metal)"/>
      <path d="M198 438 C257 341 386 291 582 276 C748 264 925 292 1031 353 C1067 374 1055 409 1007 424 C860 472 533 480 303 452 C240 444 180 466 198 438 Z" fill="url(#podDark)" opacity="0.96"/>

      <path d="M407 284 C503 235 690 232 814 267 C874 284 912 317 926 358 C838 384 633 388 469 371 C419 366 385 348 370 323 C361 308 374 295 407 284 Z" fill="url(#glass)" stroke="#a7edff" stroke-width="4" opacity="0.96"/>
      <path d="M426 296 C522 256 690 254 795 282" fill="none" stroke="#ffffff" stroke-width="6" opacity="0.38" stroke-linecap="round"/>
      <path d="M441 348 C566 372 742 371 892 347" fill="none" stroke="#69d7ff" stroke-width="3" opacity="0.34"/>

      <g opacity="0.70">
        <ellipse cx="620" cy="350" rx="94" ry="30" fill="#dbe8ef" opacity="0.25"/>
        <path d="M534 356 C578 327 674 322 718 354 C666 370 594 374 534 356 Z" fill="#d7edf6" opacity="0.20"/>
        <circle cx="611" cy="333" r="20" fill="#d9edf4" opacity="0.20"/>
      </g>

      <path d="M259 427 C437 452 777 451 1015 410" fill="none" stroke="#83eaff" stroke-width="6" opacity="0.88" filter="url(#softGlow)"/>
      <path d="M250 397 C436 419 808 417 1054 377" fill="none" stroke="#d9f9ff" stroke-width="2" opacity="0.65"/>
      <path d="M211 464 C414 508 807 505 1029 441" fill="none" stroke="#ffffff" stroke-width="3" opacity="0.24"/>

      <g transform="translate(774 391)">
        <path d="M-14 -41 H218 C240 -41 252 -28 246 -8 L232 39 C228 54 216 62 198 62 H-18 C-42 62 -54 48 -47 28 L-31 -24 C-27 -35 -22 -41 -14 -41 Z" fill="#16283a" stroke="#9bdff2" stroke-width="2.5" opacity="0.98"/>
        <path d="M-1 -28 H204 C221 -28 229 -19 225 -4 L215 31 C212 43 203 49 188 49 H0 C-19 49 -27 38 -22 22 L-10 -17 C-7 -24 -5 -28 -1 -28 Z" fill="#081827" stroke="#2ecfff" stroke-width="1.5" opacity="0.86"/>
        <text x="103" y="22" text-anchor="middle" font-family="Inter, Arial, sans-serif" font-size="58" font-weight="900" letter-spacing="7" fill="url(#mark)" stroke="#072236" stroke-width="1.2" paint-order="stroke fill" filter="url(#softGlow)">CWH</text>
        <path d="M-2 42 H190" stroke="#69d7ff" stroke-width="3" opacity="0.55"/>
      </g>

      <g opacity="0.92">
        <circle cx="320" cy="421" r="9" fill="#86edff" filter="url(#softGlow)"/>
        <circle cx="358" cy="427" r="5" fill="#d8fbff"/>
        <circle cx="998" cy="362" r="8" fill="#86edff" filter="url(#softGlow)"/>
      </g>
    </g>
  </g>

  <rect x="0" y="0" width="1280" height="720" fill="none" stroke="#79e4ff" stroke-width="2" opacity="0.16"/>
</svg>
